<svg height="16" viewBox="0 0 32 16" width="32" xmlns="http://www.w3.org/2000/svg"><g style="fill:none;fill-rule:evenodd;stroke:#303b48;stroke-linecap:round;stroke-linejoin:round;stroke-width:1.3"><path d="m27.5 12.5c1.313 0 2.93.018 2.93-1.708s.556-4.862-1.87-4.862c0 0-3.13.138-3.549-.199l-5.161-4.453a2.508 2.508 0 0 0 -1.575-.558h-9.115c-.843 0-1.631.425-2.098 1.133l-1.526 2.854c-.437.663-.85 1.223-1.636 1.223-1.393 0-2.529.92-2.529 2.326l.129 1.744c0 1.406 1.129 2.546 2.522 2.546l.478-.046m5.13 0h12.87"/><path d="m27.522 12a2.522 2.522 0 1 1 -5.044 0 2.522 2.522 0 0 1 5.044 0zm-18.022 0a2.5 2.5 0 1 1 -5 0 2.5 2.5 0 0 1 5 0zm6.5-11v4.528m-10.957.056h19.457"/></g></svg>